<svg width="1920" height="1080" viewBox="0 0 1920 1080" fill="none" xmlns="http://www.w3.org/2000/svg">
<g clip-path="url(#clip0_63_11)">
<rect width="1920" height="1080" fill="#F5F5DC"/>
<path fill-rule="evenodd" clip-rule="evenodd" d="M1292 1080L1366.7 1035C1441.39 990 1590.78 900 1576.95 810C1560.35 720 1383.3 630 1397.13 540C1410.96 450 1621.22 360 1740.18 270C1859.14 180 1889.57 90 1906.17 45L1920 0V45C1920 90 1920 180 1920 270C1920 360 1920 450 1920 540C1920 630 1920 720 1920 810C1920 900 1920 990 1920 1035V1080H1292Z" fill="#F2E63D"/>
<path fill-rule="evenodd" clip-rule="evenodd" d="M1400 1080L1461.85 1021.21C1523.7 962.417 1647.4 844.833 1635.95 727.25C1622.2 609.667 1475.59 492.083 1487.05 374.5C1498.5 256.917 1672.6 139.333 1771.1 21.75C1869.6 -95.8334 1894.8 -213.417 1908.55 -272.208L1920 -331V-272.208C1920 -213.417 1920 -95.8334 1920 21.75C1920 139.333 1920 256.917 1920 374.5C1920 492.083 1920 609.667 1920 727.25C1920 844.833 1920 962.417 1920 1021.21V1080H1400Z" fill="#F2C53D"/>
<path fill-rule="evenodd" clip-rule="evenodd" d="M1591.89 1000L1598.52 968.292C1604.49 936.583 1617.1 873.167 1611.13 809.75C1604.49 746.333 1579.28 682.917 1547.42 619.5C1515.57 556.083 1477.08 492.667 1508.94 429.25C1540.79 365.833 1642.98 302.417 1680.81 239C1719.3 175.583 1694.08 112.167 1680.81 48.75C1668.2 -14.6667 1668.2 -78.0834 1680.81 -141.5C1694.08 -204.917 1719.3 -268.333 1725.93 -331.75C1731.9 -395.167 1719.3 -458.583 1712.66 -490.292L1706.69 -522H1783V-490.292C1783 -458.583 1783 -395.167 1783 -331.75C1783 -268.333 1783 -204.917 1783 -141.5C1783 -78.0834 1783 -14.6667 1783 48.75C1783 112.167 1783 175.583 1783 239C1783 302.417 1783 365.833 1783 429.25C1783 492.667 1783 556.083 1783 619.5C1783 682.917 1783 746.333 1783 809.75C1783 873.167 1783 936.583 1783 968.292V1000H1591.89Z" fill="#9AC7E6"/>
<path fill-rule="evenodd" clip-rule="evenodd" d="M1612 1379L1621.86 1347.29C1630.74 1315.58 1649.47 1252.17 1640.6 1188.75C1630.74 1125.33 1593.26 1061.92 1545.93 998.5C1498.6 935.083 1441.4 871.667 1488.74 808.25C1536.07 744.833 1687.93 681.417 1744.14 618C1801.33 554.583 1763.86 491.167 1744.14 427.75C1725.4 364.333 1725.4 300.917 1744.14 237.5C1763.86 174.083 1801.33 110.667 1811.19 47.25C1820.07 -16.1666 1801.33 -79.5834 1791.47 -111.292L1782.6 -143H1896V-111.292C1896 -79.5834 1896 -16.1666 1896 47.25C1896 110.667 1896 174.083 1896 237.5C1896 300.917 1896 364.333 1896 427.75C1896 491.167 1896 554.583 1896 618C1896 681.417 1896 744.833 1896 808.25C1896 871.667 1896 935.083 1896 998.5C1896 1061.92 1896 1125.33 1896 1188.75C1896 1252.17 1896 1315.58 1896 1347.29V1379H1612Z" fill="#F5BD8B"/>
<path fill-rule="evenodd" clip-rule="evenodd" d="M1736.24 0L1742.62 25.2083C1748.36 50.4167 1760.48 100.833 1754.74 151.25C1748.36 201.667 1724.11 252.083 1693.49 302.5C1662.86 352.917 1625.85 403.333 1656.48 453.75C1687.1 504.167 1785.37 554.583 1821.74 605C1858.75 655.417 1834.5 705.833 1821.74 756.25C1809.61 806.667 1809.61 857.083 1821.74 907.5C1834.5 957.917 1858.75 1008.33 1865.13 1058.75C1870.87 1109.17 1858.75 1159.58 1852.36 1184.79L1846.62 1210H1920V1184.79C1920 1159.58 1920 1109.17 1920 1058.75C1920 1008.33 1920 957.917 1920 907.5C1920 857.083 1920 806.667 1920 756.25C1920 705.833 1920 655.417 1920 605C1920 554.583 1920 504.167 1920 453.75C1920 403.333 1920 352.917 1920 302.5C1920 252.083 1920 201.667 1920 151.25C1920 100.833 1920 50.4167 1920 25.2083V0L1736.24 0Z" fill="#F27052"/>
<path fill-rule="evenodd" clip-rule="evenodd" d="M1702.16 1080L1709.72 1056.48C1716.53 1032.96 1730.9 985.917 1724.09 938.875C1716.53 891.833 1687.78 844.792 1651.48 797.75C1615.17 750.708 1571.3 703.667 1607.61 656.625C1643.91 609.583 1760.4 562.542 1803.51 515.5C1847.39 468.458 1818.64 421.417 1803.51 374.375C1789.14 327.333 1789.14 280.292 1803.51 233.25C1818.64 186.208 1847.39 139.167 1854.95 92.1249C1861.76 45.0833 1847.39 -1.95837 1839.82 -25.4792L1833.01 -49H1920V-25.4792C1920 -1.95837 1920 45.0833 1920 92.1249C1920 139.167 1920 186.208 1920 233.25C1920 280.292 1920 327.333 1920 374.375C1920 421.417 1920 468.458 1920 515.5C1920 562.542 1920 609.583 1920 656.625C1920 703.667 1920 750.708 1920 797.75C1920 844.792 1920 891.833 1920 938.875C1920 985.917 1920 1032.96 1920 1056.48V1080H1702.16Z" fill="#F9E88F"/>
<path fill-rule="evenodd" clip-rule="evenodd" d="M332 -0.816956L272.41 24.7959C212.819 50.4087 93.6388 101.634 104.674 152.86C117.916 204.086 259.167 255.311 248.132 306.537C237.097 357.763 69.3612 408.988 -25.5418 460.214C-120.445 511.44 -144.722 562.665 -157.965 588.278L-169 613.891V588.278C-169 562.665 -169 511.44 -169 460.214C-169 408.988 -169 357.763 -169 306.537C-169 255.311 -169 204.086 -169 152.86C-169 101.634 -169 50.4087 -169 24.7959V-0.816956L332 -0.816956Z" fill="#F2E63D"/>
<path fill-rule="evenodd" clip-rule="evenodd" d="M245.841 -0.816956L196.498 32.6457C147.156 66.1084 48.4716 133.034 57.6091 199.959C68.574 266.885 185.534 333.81 176.396 400.735C167.259 467.661 28.3692 534.586 -50.213 601.512C-128.795 668.437 -148.898 735.362 -159.863 768.825L-169 802.288V768.825C-169 735.362 -169 668.437 -169 601.512C-169 534.586 -169 467.661 -169 400.735C-169 333.81 -169 266.885 -169 199.959C-169 133.034 -169 66.1084 -169 32.6457V-0.816956L245.841 -0.816956Z" fill="#F2C53D"/>
<path fill-rule="evenodd" clip-rule="evenodd" d="M92.7603 44.717L87.4664 62.7645C82.7018 80.8121 72.6433 116.907 77.4079 153.002C82.7018 189.097 102.819 225.193 128.23 261.288C153.641 297.383 184.346 333.478 158.935 369.573C133.524 405.668 51.9969 441.763 21.8214 477.858C-8.88351 513.954 11.2335 550.049 21.8214 586.144C31.8799 622.239 31.8799 658.334 21.8214 694.429C11.2335 730.524 -8.88351 766.62 -14.1775 802.715C-18.942 838.81 -8.88351 874.905 -3.58957 892.952L1.17499 911L-59.7054 911L-59.7054 892.952C-59.7054 874.905 -59.7054 838.81 -59.7054 802.715C-59.7054 766.62 -59.7054 730.524 -59.7054 694.429C-59.7054 658.334 -59.7054 622.239 -59.7054 586.144C-59.7054 550.049 -59.7054 513.954 -59.7054 477.858C-59.7054 441.763 -59.7054 405.668 -59.7054 369.573C-59.7054 333.478 -59.7054 297.383 -59.7054 261.288C-59.7054 225.193 -59.7054 189.097 -59.7054 153.002C-59.7054 116.907 -59.7054 80.8121 -59.7054 62.7645V44.717L92.7603 44.717Z" fill="#9AC7E6"/>
<path fill-rule="evenodd" clip-rule="evenodd" d="M76.7127 -171L68.8458 -152.952C61.7656 -134.905 46.8186 -98.8097 53.8988 -62.7146C61.7656 -26.6195 91.6598 9.47563 129.421 45.5708C167.182 81.6659 212.81 117.761 175.049 153.856C137.288 189.951 16.1377 226.046 -28.7035 262.142C-74.3314 298.237 -44.4373 334.332 -28.7035 370.427C-13.7564 406.522 -13.7564 442.617 -28.7035 478.712C-44.4373 514.807 -74.3314 550.903 -82.1983 586.998C-89.2785 623.093 -74.3314 659.188 -66.4646 677.235L-59.3844 695.283H-149.854V677.235C-149.854 659.188 -149.854 623.093 -149.854 586.998C-149.854 550.903 -149.854 514.807 -149.854 478.712C-149.854 442.617 -149.854 406.522 -149.854 370.427C-149.854 334.332 -149.854 298.237 -149.854 262.142C-149.854 226.046 -149.854 189.951 -149.854 153.856C-149.854 117.761 -149.854 81.6659 -149.854 45.5708C-149.854 9.47563 -149.854 -26.6195 -149.854 -62.7146C-149.854 -98.8097 -149.854 -134.905 -149.854 -152.952V-171L76.7127 -171Z" fill="#F5BD8B"/>
<path fill-rule="evenodd" clip-rule="evenodd" d="M-22.3983 613.891L-27.4887 599.543C-32.07 585.195 -41.7416 556.499 -37.1603 527.804C-32.07 499.108 -12.7267 470.412 11.7069 441.716C36.1405 413.02 65.6645 384.324 41.2309 355.628C16.7972 326.932 -61.5939 298.237 -90.6088 269.541C-120.133 240.845 -100.79 212.149 -90.6088 183.453C-80.9372 154.757 -80.9372 126.061 -90.6088 97.3656C-100.79 68.6697 -120.133 39.9739 -125.223 11.278C-129.804 -17.4178 -120.133 -46.1137 -115.042 -60.4617L-110.461 -74.8096H-169V-60.4617C-169 -46.1137 -169 -17.4178 -169 11.278C-169 39.9739 -169 68.6697 -169 97.3656C-169 126.061 -169 154.757 -169 183.453C-169 212.149 -169 240.845 -169 269.541C-169 298.237 -169 326.932 -169 355.628C-169 384.324 -169 413.02 -169 441.716C-169 470.412 -169 499.108 -169 527.804C-169 556.499 -169 585.195 -169 599.543V613.891H-22.3983Z" fill="#F27052"/>
<path fill-rule="evenodd" clip-rule="evenodd" d="M4.78961 -0.816956L-1.24475 12.5705C-6.67567 25.9579 -18.141 52.7328 -12.71 79.5077C-6.67567 106.283 16.2549 133.058 45.2198 159.832C74.1848 186.607 109.184 213.382 80.2191 240.157C51.2542 266.932 -41.675 293.707 -76.0708 320.482C-111.07 347.257 -88.1395 374.032 -76.0708 400.807C-64.6055 427.581 -64.6055 454.356 -76.0708 481.131C-88.1395 507.906 -111.07 534.681 -117.104 561.456C-122.535 588.231 -111.07 615.006 -105.036 628.393L-99.6048 641.781H-169V628.393C-169 615.006 -169 588.231 -169 561.456C-169 534.681 -169 507.906 -169 481.131C-169 454.356 -169 427.581 -169 400.807C-169 374.032 -169 347.257 -169 320.482C-169 293.707 -169 266.932 -169 240.157C-169 213.382 -169 186.607 -169 159.832C-169 133.058 -169 106.283 -169 79.5077C-169 52.7328 -169 25.9579 -169 12.5705V-0.816956L4.78961 -0.816956Z" fill="#F9E88F"/>
</g>
<defs>
<clipPath id="clip0_63_11">
<rect width="1920" height="1080" fill="white"/>
</clipPath>
</defs>
</svg>
